<?xml version="1.0" encoding="utf-8" standalone="no"?>
<!DOCTYPE svg PUBLIC "-//W3C//DTD SVG 1.1//EN"
  "http://www.w3.org/Graphics/SVG/1.1/DTD/svg11.dtd">
<svg xmlns:xlink="http://www.w3.org/1999/xlink" width="290.192358pt" height="218.81875pt" viewBox="0 0 290.192358 218.81875" xmlns="http://www.w3.org/2000/svg" version="1.1">
 <metadata>
  <rdf:RDF xmlns:dc="http://purl.org/dc/elements/1.1/" xmlns:cc="http://creativecommons.org/ns#" xmlns:rdf="http://www.w3.org/1999/02/22-rdf-syntax-ns#">
   <cc:Work>
    <dc:type rdf:resource="http://purl.org/dc/dcmitype/StillImage"/>
    <dc:date>2025-11-01T11:25:43.152340</dc:date>
    <dc:format>image/svg+xml</dc:format>
    <dc:creator>
     <cc:Agent>
      <dc:title>Matplotlib v3.10.0, https://matplotlib.org/</dc:title>
     </cc:Agent>
    </dc:creator>
   </cc:Work>
  </rdf:RDF>
 </metadata>
 <defs>
  <style type="text/css">*{stroke-linejoin: round; stroke-linecap: butt}</style>
 </defs>
 <g id="figure_1">
  <g id="patch_1">
   <path d="M 0 218.81875 
L 290.192358 218.81875 
L 290.192358 0 
L 0 0 
z
" style="fill: #ffffff"/>
  </g>
  <g id="axes_1">
   <g id="patch_2">
    <path d="M 57.530938 173.52 
L 280.730937 173.52 
L 280.730937 7.2 
L 57.530938 7.2 
z
" style="fill: #ffffff"/>
   </g>
   <g id="matplotlib.axis_1">
    <g id="xtick_1">
     <g id="line2d_1">
      <path d="M 67.676392 173.52 
L 67.676392 7.2 
" clip-path="url(#pacb4ae7eb0)" style="fill: none; stroke: #b0b0b0; stroke-width: 0.8; stroke-linecap: square"/>
     </g>
     <g id="line2d_2">
      <defs>
       <path id="m8d12909cdd" d="M 0 0 
L 0 3.5 
" style="stroke: #000000; stroke-width: 0.8"/>
      </defs>
      <g>
       <use xlink:href="#m8d12909cdd" x="67.676392" y="173.52" style="stroke: #000000; stroke-width: 0.8"/>
      </g>
     </g>
     <g id="text_1">
      <!-- 0 -->
      <g transform="translate(63.540767 190.397969) scale(0.13 -0.13)">
       <defs>
        <path id="DejaVuSans-30" d="M 2034 4250 
Q 1547 4250 1301 3770 
Q 1056 3291 1056 2328 
Q 1056 1369 1301 889 
Q 1547 409 2034 409 
Q 2525 409 2770 889 
Q 3016 1369 3016 2328 
Q 3016 3291 2770 3770 
Q 2525 4250 2034 4250 
z
M 2034 4750 
Q 2819 4750 3233 4129 
Q 3647 3509 3647 2328 
Q 3647 1150 3233 529 
Q 2819 -91 2034 -91 
Q 1250 -91 836 529 
Q 422 1150 422 2328 
Q 422 3509 836 4129 
Q 1250 4750 2034 4750 
z
" transform="scale(0.015625)"/>
       </defs>
       <use xlink:href="#DejaVuSans-30"/>
      </g>
     </g>
    </g>
    <g id="xtick_2">
     <g id="line2d_3">
      <path d="M 118.403665 173.52 
L 118.403665 7.2 
" clip-path="url(#pacb4ae7eb0)" style="fill: none; stroke: #b0b0b0; stroke-width: 0.8; stroke-linecap: square"/>
     </g>
     <g id="line2d_4">
      <g>
       <use xlink:href="#m8d12909cdd" x="118.403665" y="173.52" style="stroke: #000000; stroke-width: 0.8"/>
      </g>
     </g>
     <g id="text_2">
      <!-- 50 -->
      <g transform="translate(110.132415 190.397969) scale(0.13 -0.13)">
       <defs>
        <path id="DejaVuSans-35" d="M 691 4666 
L 3169 4666 
L 3169 4134 
L 1269 4134 
L 1269 2991 
Q 1406 3038 1543 3061 
Q 1681 3084 1819 3084 
Q 2600 3084 3056 2656 
Q 3513 2228 3513 1497 
Q 3513 744 3044 326 
Q 2575 -91 1722 -91 
Q 1428 -91 1123 -41 
Q 819 9 494 109 
L 494 744 
Q 775 591 1075 516 
Q 1375 441 1709 441 
Q 2250 441 2565 725 
Q 2881 1009 2881 1497 
Q 2881 1984 2565 2268 
Q 2250 2553 1709 2553 
Q 1456 2553 1204 2497 
Q 953 2441 691 2322 
L 691 4666 
z
" transform="scale(0.015625)"/>
       </defs>
       <use xlink:href="#DejaVuSans-35"/>
       <use xlink:href="#DejaVuSans-30" transform="translate(63.623047 0)"/>
      </g>
     </g>
    </g>
    <g id="xtick_3">
     <g id="line2d_5">
      <path d="M 169.130937 173.52 
L 169.130937 7.2 
" clip-path="url(#pacb4ae7eb0)" style="fill: none; stroke: #b0b0b0; stroke-width: 0.8; stroke-linecap: square"/>
     </g>
     <g id="line2d_6">
      <g>
       <use xlink:href="#m8d12909cdd" x="169.130937" y="173.52" style="stroke: #000000; stroke-width: 0.8"/>
      </g>
     </g>
     <g id="text_3">
      <!-- 100 -->
      <g transform="translate(156.724062 190.397969) scale(0.13 -0.13)">
       <defs>
        <path id="DejaVuSans-31" d="M 794 531 
L 1825 531 
L 1825 4091 
L 703 3866 
L 703 4441 
L 1819 4666 
L 2450 4666 
L 2450 531 
L 3481 531 
L 3481 0 
L 794 0 
L 794 531 
z
" transform="scale(0.015625)"/>
       </defs>
       <use xlink:href="#DejaVuSans-31"/>
       <use xlink:href="#DejaVuSans-30" transform="translate(63.623047 0)"/>
       <use xlink:href="#DejaVuSans-30" transform="translate(127.246094 0)"/>
      </g>
     </g>
    </g>
    <g id="xtick_4">
     <g id="line2d_7">
      <path d="M 219.85821 173.52 
L 219.85821 7.2 
" clip-path="url(#pacb4ae7eb0)" style="fill: none; stroke: #b0b0b0; stroke-width: 0.8; stroke-linecap: square"/>
     </g>
     <g id="line2d_8">
      <g>
       <use xlink:href="#m8d12909cdd" x="219.85821" y="173.52" style="stroke: #000000; stroke-width: 0.8"/>
      </g>
     </g>
     <g id="text_4">
      <!-- 150 -->
      <g transform="translate(207.451335 190.397969) scale(0.13 -0.13)">
       <use xlink:href="#DejaVuSans-31"/>
       <use xlink:href="#DejaVuSans-35" transform="translate(63.623047 0)"/>
       <use xlink:href="#DejaVuSans-30" transform="translate(127.246094 0)"/>
      </g>
     </g>
    </g>
    <g id="xtick_5">
     <g id="line2d_9">
      <path d="M 270.585483 173.52 
L 270.585483 7.2 
" clip-path="url(#pacb4ae7eb0)" style="fill: none; stroke: #b0b0b0; stroke-width: 0.8; stroke-linecap: square"/>
     </g>
     <g id="line2d_10">
      <g>
       <use xlink:href="#m8d12909cdd" x="270.585483" y="173.52" style="stroke: #000000; stroke-width: 0.8"/>
      </g>
     </g>
     <g id="text_5">
      <!-- 200 -->
      <g transform="translate(258.178608 190.397969) scale(0.13 -0.13)">
       <defs>
        <path id="DejaVuSans-32" d="M 1228 531 
L 3431 531 
L 3431 0 
L 469 0 
L 469 531 
Q 828 903 1448 1529 
Q 2069 2156 2228 2338 
Q 2531 2678 2651 2914 
Q 2772 3150 2772 3378 
Q 2772 3750 2511 3984 
Q 2250 4219 1831 4219 
Q 1534 4219 1204 4116 
Q 875 4013 500 3803 
L 500 4441 
Q 881 4594 1212 4672 
Q 1544 4750 1819 4750 
Q 2544 4750 2975 4387 
Q 3406 4025 3406 3419 
Q 3406 3131 3298 2873 
Q 3191 2616 2906 2266 
Q 2828 2175 2409 1742 
Q 1991 1309 1228 531 
z
" transform="scale(0.015625)"/>
       </defs>
       <use xlink:href="#DejaVuSans-32"/>
       <use xlink:href="#DejaVuSans-30" transform="translate(63.623047 0)"/>
       <use xlink:href="#DejaVuSans-30" transform="translate(127.246094 0)"/>
      </g>
     </g>
    </g>
    <g id="text_6">
     <!-- extra workload (%) -->
     <g transform="translate(97.664141 208.499219) scale(0.15 -0.15)">
      <defs>
       <path id="DejaVuSans-65" d="M 3597 1894 
L 3597 1613 
L 953 1613 
Q 991 1019 1311 708 
Q 1631 397 2203 397 
Q 2534 397 2845 478 
Q 3156 559 3463 722 
L 3463 178 
Q 3153 47 2828 -22 
Q 2503 -91 2169 -91 
Q 1331 -91 842 396 
Q 353 884 353 1716 
Q 353 2575 817 3079 
Q 1281 3584 2069 3584 
Q 2775 3584 3186 3129 
Q 3597 2675 3597 1894 
z
M 3022 2063 
Q 3016 2534 2758 2815 
Q 2500 3097 2075 3097 
Q 1594 3097 1305 2825 
Q 1016 2553 972 2059 
L 3022 2063 
z
" transform="scale(0.015625)"/>
       <path id="DejaVuSans-78" d="M 3513 3500 
L 2247 1797 
L 3578 0 
L 2900 0 
L 1881 1375 
L 863 0 
L 184 0 
L 1544 1831 
L 300 3500 
L 978 3500 
L 1906 2253 
L 2834 3500 
L 3513 3500 
z
" transform="scale(0.015625)"/>
       <path id="DejaVuSans-74" d="M 1172 4494 
L 1172 3500 
L 2356 3500 
L 2356 3053 
L 1172 3053 
L 1172 1153 
Q 1172 725 1289 603 
Q 1406 481 1766 481 
L 2356 481 
L 2356 0 
L 1766 0 
Q 1100 0 847 248 
Q 594 497 594 1153 
L 594 3053 
L 172 3053 
L 172 3500 
L 594 3500 
L 594 4494 
L 1172 4494 
z
" transform="scale(0.015625)"/>
       <path id="DejaVuSans-72" d="M 2631 2963 
Q 2534 3019 2420 3045 
Q 2306 3072 2169 3072 
Q 1681 3072 1420 2755 
Q 1159 2438 1159 1844 
L 1159 0 
L 581 0 
L 581 3500 
L 1159 3500 
L 1159 2956 
Q 1341 3275 1631 3429 
Q 1922 3584 2338 3584 
Q 2397 3584 2469 3576 
Q 2541 3569 2628 3553 
L 2631 2963 
z
" transform="scale(0.015625)"/>
       <path id="DejaVuSans-61" d="M 2194 1759 
Q 1497 1759 1228 1600 
Q 959 1441 959 1056 
Q 959 750 1161 570 
Q 1363 391 1709 391 
Q 2188 391 2477 730 
Q 2766 1069 2766 1631 
L 2766 1759 
L 2194 1759 
z
M 3341 1997 
L 3341 0 
L 2766 0 
L 2766 531 
Q 2569 213 2275 61 
Q 1981 -91 1556 -91 
Q 1019 -91 701 211 
Q 384 513 384 1019 
Q 384 1609 779 1909 
Q 1175 2209 1959 2209 
L 2766 2209 
L 2766 2266 
Q 2766 2663 2505 2880 
Q 2244 3097 1772 3097 
Q 1472 3097 1187 3025 
Q 903 2953 641 2809 
L 641 3341 
Q 956 3463 1253 3523 
Q 1550 3584 1831 3584 
Q 2591 3584 2966 3190 
Q 3341 2797 3341 1997 
z
" transform="scale(0.015625)"/>
       <path id="DejaVuSans-20" transform="scale(0.015625)"/>
       <path id="DejaVuSans-77" d="M 269 3500 
L 844 3500 
L 1563 769 
L 2278 3500 
L 2956 3500 
L 3675 769 
L 4391 3500 
L 4966 3500 
L 4050 0 
L 3372 0 
L 2619 2869 
L 1863 0 
L 1184 0 
L 269 3500 
z
" transform="scale(0.015625)"/>
       <path id="DejaVuSans-6f" d="M 1959 3097 
Q 1497 3097 1228 2736 
Q 959 2375 959 1747 
Q 959 1119 1226 758 
Q 1494 397 1959 397 
Q 2419 397 2687 759 
Q 2956 1122 2956 1747 
Q 2956 2369 2687 2733 
Q 2419 3097 1959 3097 
z
M 1959 3584 
Q 2709 3584 3137 3096 
Q 3566 2609 3566 1747 
Q 3566 888 3137 398 
Q 2709 -91 1959 -91 
Q 1206 -91 779 398 
Q 353 888 353 1747 
Q 353 2609 779 3096 
Q 1206 3584 1959 3584 
z
" transform="scale(0.015625)"/>
       <path id="DejaVuSans-6b" d="M 581 4863 
L 1159 4863 
L 1159 1991 
L 2875 3500 
L 3609 3500 
L 1753 1863 
L 3688 0 
L 2938 0 
L 1159 1709 
L 1159 0 
L 581 0 
L 581 4863 
z
" transform="scale(0.015625)"/>
       <path id="DejaVuSans-6c" d="M 603 4863 
L 1178 4863 
L 1178 0 
L 603 0 
L 603 4863 
z
" transform="scale(0.015625)"/>
       <path id="DejaVuSans-64" d="M 2906 2969 
L 2906 4863 
L 3481 4863 
L 3481 0 
L 2906 0 
L 2906 525 
Q 2725 213 2448 61 
Q 2172 -91 1784 -91 
Q 1150 -91 751 415 
Q 353 922 353 1747 
Q 353 2572 751 3078 
Q 1150 3584 1784 3584 
Q 2172 3584 2448 3432 
Q 2725 3281 2906 2969 
z
M 947 1747 
Q 947 1113 1208 752 
Q 1469 391 1925 391 
Q 2381 391 2643 752 
Q 2906 1113 2906 1747 
Q 2906 2381 2643 2742 
Q 2381 3103 1925 3103 
Q 1469 3103 1208 2742 
Q 947 2381 947 1747 
z
" transform="scale(0.015625)"/>
       <path id="DejaVuSans-28" d="M 1984 4856 
Q 1566 4138 1362 3434 
Q 1159 2731 1159 2009 
Q 1159 1288 1364 580 
Q 1569 -128 1984 -844 
L 1484 -844 
Q 1016 -109 783 600 
Q 550 1309 550 2009 
Q 550 2706 781 3412 
Q 1013 4119 1484 4856 
L 1984 4856 
z
" transform="scale(0.015625)"/>
       <path id="DejaVuSans-25" d="M 4653 2053 
Q 4381 2053 4226 1822 
Q 4072 1591 4072 1178 
Q 4072 772 4226 539 
Q 4381 306 4653 306 
Q 4919 306 5073 539 
Q 5228 772 5228 1178 
Q 5228 1588 5073 1820 
Q 4919 2053 4653 2053 
z
M 4653 2450 
Q 5147 2450 5437 2106 
Q 5728 1763 5728 1178 
Q 5728 594 5436 251 
Q 5144 -91 4653 -91 
Q 4153 -91 3862 251 
Q 3572 594 3572 1178 
Q 3572 1766 3864 2108 
Q 4156 2450 4653 2450 
z
M 1428 4353 
Q 1159 4353 1004 4120 
Q 850 3888 850 3481 
Q 850 3069 1003 2837 
Q 1156 2606 1428 2606 
Q 1700 2606 1854 2837 
Q 2009 3069 2009 3481 
Q 2009 3884 1853 4118 
Q 1697 4353 1428 4353 
z
M 4250 4750 
L 4750 4750 
L 1831 -91 
L 1331 -91 
L 4250 4750 
z
M 1428 4750 
Q 1922 4750 2215 4408 
Q 2509 4066 2509 3481 
Q 2509 2891 2217 2550 
Q 1925 2209 1428 2209 
Q 931 2209 642 2551 
Q 353 2894 353 3481 
Q 353 4063 643 4406 
Q 934 4750 1428 4750 
z
" transform="scale(0.015625)"/>
       <path id="DejaVuSans-29" d="M 513 4856 
L 1013 4856 
Q 1481 4119 1714 3412 
Q 1947 2706 1947 2009 
Q 1947 1309 1714 600 
Q 1481 -109 1013 -844 
L 513 -844 
Q 928 -128 1133 580 
Q 1338 1288 1338 2009 
Q 1338 2731 1133 3434 
Q 928 4138 513 4856 
z
" transform="scale(0.015625)"/>
      </defs>
      <use xlink:href="#DejaVuSans-65"/>
      <use xlink:href="#DejaVuSans-78" transform="translate(59.773438 0)"/>
      <use xlink:href="#DejaVuSans-74" transform="translate(118.953125 0)"/>
      <use xlink:href="#DejaVuSans-72" transform="translate(158.162109 0)"/>
      <use xlink:href="#DejaVuSans-61" transform="translate(199.275391 0)"/>
      <use xlink:href="#DejaVuSans-20" transform="translate(260.554688 0)"/>
      <use xlink:href="#DejaVuSans-77" transform="translate(292.341797 0)"/>
      <use xlink:href="#DejaVuSans-6f" transform="translate(374.128906 0)"/>
      <use xlink:href="#DejaVuSans-72" transform="translate(435.310547 0)"/>
      <use xlink:href="#DejaVuSans-6b" transform="translate(476.423828 0)"/>
      <use xlink:href="#DejaVuSans-6c" transform="translate(534.333984 0)"/>
      <use xlink:href="#DejaVuSans-6f" transform="translate(562.117188 0)"/>
      <use xlink:href="#DejaVuSans-61" transform="translate(623.298828 0)"/>
      <use xlink:href="#DejaVuSans-64" transform="translate(684.578125 0)"/>
      <use xlink:href="#DejaVuSans-20" transform="translate(748.054688 0)"/>
      <use xlink:href="#DejaVuSans-28" transform="translate(779.841797 0)"/>
      <use xlink:href="#DejaVuSans-25" transform="translate(818.855469 0)"/>
      <use xlink:href="#DejaVuSans-29" transform="translate(913.875 0)"/>
     </g>
    </g>
   </g>
   <g id="matplotlib.axis_2">
    <g id="ytick_1">
     <g id="line2d_11">
      <path d="M 57.530938 158.648024 
L 280.730937 158.648024 
" clip-path="url(#pacb4ae7eb0)" style="fill: none; stroke: #b0b0b0; stroke-width: 0.8; stroke-linecap: square"/>
     </g>
     <g id="line2d_12">
      <defs>
       <path id="m9d25cfab25" d="M 0 0 
L -3.5 0 
" style="stroke: #000000; stroke-width: 0.8"/>
      </defs>
      <g>
       <use xlink:href="#m9d25cfab25" x="57.530938" y="158.648024" style="stroke: #000000; stroke-width: 0.8"/>
      </g>
     </g>
     <g id="text_7">
      <!-- 400 -->
      <g transform="translate(25.717187 163.587009) scale(0.13 -0.13)">
       <defs>
        <path id="DejaVuSans-34" d="M 2419 4116 
L 825 1625 
L 2419 1625 
L 2419 4116 
z
M 2253 4666 
L 3047 4666 
L 3047 1625 
L 3713 1625 
L 3713 1100 
L 3047 1100 
L 3047 0 
L 2419 0 
L 2419 1100 
L 313 1100 
L 313 1709 
L 2253 4666 
z
" transform="scale(0.015625)"/>
       </defs>
       <use xlink:href="#DejaVuSans-34"/>
       <use xlink:href="#DejaVuSans-30" transform="translate(63.623047 0)"/>
       <use xlink:href="#DejaVuSans-30" transform="translate(127.246094 0)"/>
      </g>
     </g>
    </g>
    <g id="ytick_2">
     <g id="line2d_13">
      <path d="M 57.530938 131.407395 
L 280.730937 131.407395 
" clip-path="url(#pacb4ae7eb0)" style="fill: none; stroke: #b0b0b0; stroke-width: 0.8; stroke-linecap: square"/>
     </g>
     <g id="line2d_14">
      <g>
       <use xlink:href="#m9d25cfab25" x="57.530938" y="131.407395" style="stroke: #000000; stroke-width: 0.8"/>
      </g>
     </g>
     <g id="text_8">
      <!-- 450 -->
      <g transform="translate(25.717187 136.34638) scale(0.13 -0.13)">
       <use xlink:href="#DejaVuSans-34"/>
       <use xlink:href="#DejaVuSans-35" transform="translate(63.623047 0)"/>
       <use xlink:href="#DejaVuSans-30" transform="translate(127.246094 0)"/>
      </g>
     </g>
    </g>
    <g id="ytick_3">
     <g id="line2d_15">
      <path d="M 57.530938 104.166766 
L 280.730937 104.166766 
" clip-path="url(#pacb4ae7eb0)" style="fill: none; stroke: #b0b0b0; stroke-width: 0.8; stroke-linecap: square"/>
     </g>
     <g id="line2d_16">
      <g>
       <use xlink:href="#m9d25cfab25" x="57.530938" y="104.166766" style="stroke: #000000; stroke-width: 0.8"/>
      </g>
     </g>
     <g id="text_9">
      <!-- 500 -->
      <g transform="translate(25.717187 109.105751) scale(0.13 -0.13)">
       <use xlink:href="#DejaVuSans-35"/>
       <use xlink:href="#DejaVuSans-30" transform="translate(63.623047 0)"/>
       <use xlink:href="#DejaVuSans-30" transform="translate(127.246094 0)"/>
      </g>
     </g>
    </g>
    <g id="ytick_4">
     <g id="line2d_17">
      <path d="M 57.530938 76.926137 
L 280.730937 76.926137 
" clip-path="url(#pacb4ae7eb0)" style="fill: none; stroke: #b0b0b0; stroke-width: 0.8; stroke-linecap: square"/>
     </g>
     <g id="line2d_18">
      <g>
       <use xlink:href="#m9d25cfab25" x="57.530938" y="76.926137" style="stroke: #000000; stroke-width: 0.8"/>
      </g>
     </g>
     <g id="text_10">
      <!-- 550 -->
      <g transform="translate(25.717187 81.865122) scale(0.13 -0.13)">
       <use xlink:href="#DejaVuSans-35"/>
       <use xlink:href="#DejaVuSans-35" transform="translate(63.623047 0)"/>
       <use xlink:href="#DejaVuSans-30" transform="translate(127.246094 0)"/>
      </g>
     </g>
    </g>
    <g id="ytick_5">
     <g id="line2d_19">
      <path d="M 57.530938 49.685508 
L 280.730937 49.685508 
" clip-path="url(#pacb4ae7eb0)" style="fill: none; stroke: #b0b0b0; stroke-width: 0.8; stroke-linecap: square"/>
     </g>
     <g id="line2d_20">
      <g>
       <use xlink:href="#m9d25cfab25" x="57.530938" y="49.685508" style="stroke: #000000; stroke-width: 0.8"/>
      </g>
     </g>
     <g id="text_11">
      <!-- 600 -->
      <g transform="translate(25.717187 54.624493) scale(0.13 -0.13)">
       <defs>
        <path id="DejaVuSans-36" d="M 2113 2584 
Q 1688 2584 1439 2293 
Q 1191 2003 1191 1497 
Q 1191 994 1439 701 
Q 1688 409 2113 409 
Q 2538 409 2786 701 
Q 3034 994 3034 1497 
Q 3034 2003 2786 2293 
Q 2538 2584 2113 2584 
z
M 3366 4563 
L 3366 3988 
Q 3128 4100 2886 4159 
Q 2644 4219 2406 4219 
Q 1781 4219 1451 3797 
Q 1122 3375 1075 2522 
Q 1259 2794 1537 2939 
Q 1816 3084 2150 3084 
Q 2853 3084 3261 2657 
Q 3669 2231 3669 1497 
Q 3669 778 3244 343 
Q 2819 -91 2113 -91 
Q 1303 -91 875 529 
Q 447 1150 447 2328 
Q 447 3434 972 4092 
Q 1497 4750 2381 4750 
Q 2619 4750 2861 4703 
Q 3103 4656 3366 4563 
z
" transform="scale(0.015625)"/>
       </defs>
       <use xlink:href="#DejaVuSans-36"/>
       <use xlink:href="#DejaVuSans-30" transform="translate(63.623047 0)"/>
       <use xlink:href="#DejaVuSans-30" transform="translate(127.246094 0)"/>
      </g>
     </g>
    </g>
    <g id="ytick_6">
     <g id="line2d_21">
      <path d="M 57.530938 22.444879 
L 280.730937 22.444879 
" clip-path="url(#pacb4ae7eb0)" style="fill: none; stroke: #b0b0b0; stroke-width: 0.8; stroke-linecap: square"/>
     </g>
     <g id="line2d_22">
      <g>
       <use xlink:href="#m9d25cfab25" x="57.530938" y="22.444879" style="stroke: #000000; stroke-width: 0.8"/>
      </g>
     </g>
     <g id="text_12">
      <!-- 650 -->
      <g transform="translate(25.717187 27.383864) scale(0.13 -0.13)">
       <use xlink:href="#DejaVuSans-36"/>
       <use xlink:href="#DejaVuSans-35" transform="translate(63.623047 0)"/>
       <use xlink:href="#DejaVuSans-30" transform="translate(127.246094 0)"/>
      </g>
     </g>
    </g>
    <g id="text_13">
     <!-- cost -->
     <g transform="translate(18.597656 105.920156) rotate(-90) scale(0.15 -0.15)">
      <defs>
       <path id="DejaVuSans-63" d="M 3122 3366 
L 3122 2828 
Q 2878 2963 2633 3030 
Q 2388 3097 2138 3097 
Q 1578 3097 1268 2742 
Q 959 2388 959 1747 
Q 959 1106 1268 751 
Q 1578 397 2138 397 
Q 2388 397 2633 464 
Q 2878 531 3122 666 
L 3122 134 
Q 2881 22 2623 -34 
Q 2366 -91 2075 -91 
Q 1284 -91 818 406 
Q 353 903 353 1747 
Q 353 2603 823 3093 
Q 1294 3584 2113 3584 
Q 2378 3584 2631 3529 
Q 2884 3475 3122 3366 
z
" transform="scale(0.015625)"/>
       <path id="DejaVuSans-73" d="M 2834 3397 
L 2834 2853 
Q 2591 2978 2328 3040 
Q 2066 3103 1784 3103 
Q 1356 3103 1142 2972 
Q 928 2841 928 2578 
Q 928 2378 1081 2264 
Q 1234 2150 1697 2047 
L 1894 2003 
Q 2506 1872 2764 1633 
Q 3022 1394 3022 966 
Q 3022 478 2636 193 
Q 2250 -91 1575 -91 
Q 1294 -91 989 -36 
Q 684 19 347 128 
L 347 722 
Q 666 556 975 473 
Q 1284 391 1588 391 
Q 1994 391 2212 530 
Q 2431 669 2431 922 
Q 2431 1156 2273 1281 
Q 2116 1406 1581 1522 
L 1381 1569 
Q 847 1681 609 1914 
Q 372 2147 372 2553 
Q 372 3047 722 3315 
Q 1072 3584 1716 3584 
Q 2034 3584 2315 3537 
Q 2597 3491 2834 3397 
z
" transform="scale(0.015625)"/>
      </defs>
      <use xlink:href="#DejaVuSans-63"/>
      <use xlink:href="#DejaVuSans-6f" transform="translate(54.980469 0)"/>
      <use xlink:href="#DejaVuSans-73" transform="translate(116.162109 0)"/>
      <use xlink:href="#DejaVuSans-74" transform="translate(168.261719 0)"/>
     </g>
    </g>
   </g>
   <g id="line2d_23">
    <path d="M 67.676392 163.822904 
L 87.967301 149.45929 
L 108.25821 138.842009 
L 128.549119 131.002762 
L 148.840028 125.39516 
L 169.130937 121.810588 
L 189.421847 116.355589 
L 209.712756 114.413072 
L 230.003665 112.024872 
L 250.294574 110.3613 
L 270.585483 109.186162 
" clip-path="url(#pacb4ae7eb0)" style="fill: none; stroke-dasharray: 9.62,4.16; stroke-dashoffset: 0; stroke: #ff0000; stroke-width: 2.6"/>
    <defs>
     <path id="m0ca8c58d01" d="M 0 4 
C 1.060812 4 2.078319 3.578535 2.828427 2.828427 
C 3.578535 2.078319 4 1.060812 4 0 
C 4 -1.060812 3.578535 -2.078319 2.828427 -2.828427 
C 2.078319 -3.578535 1.060812 -4 0 -4 
C -1.060812 -4 -2.078319 -3.578535 -2.828427 -2.828427 
C -3.578535 -2.078319 -4 -1.060812 -4 0 
C -4 1.060812 -3.578535 2.078319 -2.828427 2.828427 
C -2.078319 3.578535 -1.060812 4 0 4 
z
" style="stroke: #ff0000"/>
    </defs>
    <g clip-path="url(#pacb4ae7eb0)">
     <use xlink:href="#m0ca8c58d01" x="67.676392" y="163.822904" style="fill: #ff0000; stroke: #ff0000"/>
     <use xlink:href="#m0ca8c58d01" x="87.967301" y="149.45929" style="fill: #ff0000; stroke: #ff0000"/>
     <use xlink:href="#m0ca8c58d01" x="108.25821" y="138.842009" style="fill: #ff0000; stroke: #ff0000"/>
     <use xlink:href="#m0ca8c58d01" x="128.549119" y="131.002762" style="fill: #ff0000; stroke: #ff0000"/>
     <use xlink:href="#m0ca8c58d01" x="148.840028" y="125.39516" style="fill: #ff0000; stroke: #ff0000"/>
     <use xlink:href="#m0ca8c58d01" x="169.130937" y="121.810588" style="fill: #ff0000; stroke: #ff0000"/>
     <use xlink:href="#m0ca8c58d01" x="189.421847" y="116.355589" style="fill: #ff0000; stroke: #ff0000"/>
     <use xlink:href="#m0ca8c58d01" x="209.712756" y="114.413072" style="fill: #ff0000; stroke: #ff0000"/>
     <use xlink:href="#m0ca8c58d01" x="230.003665" y="112.024872" style="fill: #ff0000; stroke: #ff0000"/>
     <use xlink:href="#m0ca8c58d01" x="250.294574" y="110.3613" style="fill: #ff0000; stroke: #ff0000"/>
     <use xlink:href="#m0ca8c58d01" x="270.585483" y="109.186162" style="fill: #ff0000; stroke: #ff0000"/>
    </g>
   </g>
   <g id="line2d_24">
    <path d="M 67.676392 165.96 
L 87.967301 152.54595 
L 108.25821 141.268602 
L 128.549119 134.440838 
L 148.840028 126.847689 
L 169.130937 122.630958 
L 189.421847 118.690981 
L 209.712756 116.320486 
L 230.003665 113.585142 
L 250.294574 112.539705 
L 270.585483 110.680576 
" clip-path="url(#pacb4ae7eb0)" style="fill: none; stroke-dasharray: 9.62,4.16; stroke-dashoffset: 0; stroke: #0000ff; stroke-width: 2.6"/>
    <defs>
     <path id="m5117793965" d="M 0 4 
C 1.060812 4 2.078319 3.578535 2.828427 2.828427 
C 3.578535 2.078319 4 1.060812 4 0 
C 4 -1.060812 3.578535 -2.078319 2.828427 -2.828427 
C 2.078319 -3.578535 1.060812 -4 0 -4 
C -1.060812 -4 -2.078319 -3.578535 -2.828427 -2.828427 
C -3.578535 -2.078319 -4 -1.060812 -4 0 
C -4 1.060812 -3.578535 2.078319 -2.828427 2.828427 
C -2.078319 3.578535 -1.060812 4 0 4 
z
" style="stroke: #0000ff"/>
    </defs>
    <g clip-path="url(#pacb4ae7eb0)">
     <use xlink:href="#m5117793965" x="67.676392" y="165.96" style="fill: #0000ff; stroke: #0000ff"/>
     <use xlink:href="#m5117793965" x="87.967301" y="152.54595" style="fill: #0000ff; stroke: #0000ff"/>
     <use xlink:href="#m5117793965" x="108.25821" y="141.268602" style="fill: #0000ff; stroke: #0000ff"/>
     <use xlink:href="#m5117793965" x="128.549119" y="134.440838" style="fill: #0000ff; stroke: #0000ff"/>
     <use xlink:href="#m5117793965" x="148.840028" y="126.847689" style="fill: #0000ff; stroke: #0000ff"/>
     <use xlink:href="#m5117793965" x="169.130937" y="122.630958" style="fill: #0000ff; stroke: #0000ff"/>
     <use xlink:href="#m5117793965" x="189.421847" y="118.690981" style="fill: #0000ff; stroke: #0000ff"/>
     <use xlink:href="#m5117793965" x="209.712756" y="116.320486" style="fill: #0000ff; stroke: #0000ff"/>
     <use xlink:href="#m5117793965" x="230.003665" y="113.585142" style="fill: #0000ff; stroke: #0000ff"/>
     <use xlink:href="#m5117793965" x="250.294574" y="112.539705" style="fill: #0000ff; stroke: #0000ff"/>
     <use xlink:href="#m5117793965" x="270.585483" y="110.680576" style="fill: #0000ff; stroke: #0000ff"/>
    </g>
   </g>
   <g id="line2d_25">
    <path d="M 67.676392 14.76 
L 87.967301 14.76 
L 108.25821 14.76 
L 128.549119 14.76 
L 148.840028 14.76 
L 169.130937 14.76 
L 189.421847 14.76 
L 209.712756 14.76 
L 230.003665 14.76 
L 250.294574 14.76 
L 270.585483 14.76 
" clip-path="url(#pacb4ae7eb0)" style="fill: none; stroke: #000000; stroke-width: 2.6; stroke-linecap: square"/>
    <defs>
     <path id="mfe3804cee4" d="M -4 4 
L 4 -4 
M -4 -4 
L 4 4 
" style="stroke: #000000"/>
    </defs>
    <g clip-path="url(#pacb4ae7eb0)">
     <use xlink:href="#mfe3804cee4" x="67.676392" y="14.76" style="stroke: #000000"/>
     <use xlink:href="#mfe3804cee4" x="87.967301" y="14.76" style="stroke: #000000"/>
     <use xlink:href="#mfe3804cee4" x="108.25821" y="14.76" style="stroke: #000000"/>
     <use xlink:href="#mfe3804cee4" x="128.549119" y="14.76" style="stroke: #000000"/>
     <use xlink:href="#mfe3804cee4" x="148.840028" y="14.76" style="stroke: #000000"/>
     <use xlink:href="#mfe3804cee4" x="169.130937" y="14.76" style="stroke: #000000"/>
     <use xlink:href="#mfe3804cee4" x="189.421847" y="14.76" style="stroke: #000000"/>
     <use xlink:href="#mfe3804cee4" x="209.712756" y="14.76" style="stroke: #000000"/>
     <use xlink:href="#mfe3804cee4" x="230.003665" y="14.76" style="stroke: #000000"/>
     <use xlink:href="#mfe3804cee4" x="250.294574" y="14.76" style="stroke: #000000"/>
     <use xlink:href="#mfe3804cee4" x="270.585483" y="14.76" style="stroke: #000000"/>
    </g>
   </g>
   <g id="line2d_26">
    <path d="M 67.676392 151.001266 
L 87.967301 137.611844 
L 108.25821 128.972357 
L 128.549119 121.739385 
L 148.840028 117.75121 
L 169.130937 113.796269 
L 189.421847 111.488202 
L 209.712756 108.629165 
L 230.003665 107.038302 
L 250.294574 104.602552 
L 270.585483 103.397049 
" clip-path="url(#pacb4ae7eb0)" style="fill: none; stroke: #008000; stroke-width: 2.6; stroke-linecap: square"/>
    <defs>
     <path id="m076a1a1d1f" d="M -4 4 
L 4 -4 
M -4 -4 
L 4 4 
" style="stroke: #008000"/>
    </defs>
    <g clip-path="url(#pacb4ae7eb0)">
     <use xlink:href="#m076a1a1d1f" x="67.676392" y="151.001266" style="fill: #008000; stroke: #008000"/>
     <use xlink:href="#m076a1a1d1f" x="87.967301" y="137.611844" style="fill: #008000; stroke: #008000"/>
     <use xlink:href="#m076a1a1d1f" x="108.25821" y="128.972357" style="fill: #008000; stroke: #008000"/>
     <use xlink:href="#m076a1a1d1f" x="128.549119" y="121.739385" style="fill: #008000; stroke: #008000"/>
     <use xlink:href="#m076a1a1d1f" x="148.840028" y="117.75121" style="fill: #008000; stroke: #008000"/>
     <use xlink:href="#m076a1a1d1f" x="169.130937" y="113.796269" style="fill: #008000; stroke: #008000"/>
     <use xlink:href="#m076a1a1d1f" x="189.421847" y="111.488202" style="fill: #008000; stroke: #008000"/>
     <use xlink:href="#m076a1a1d1f" x="209.712756" y="108.629165" style="fill: #008000; stroke: #008000"/>
     <use xlink:href="#m076a1a1d1f" x="230.003665" y="107.038302" style="fill: #008000; stroke: #008000"/>
     <use xlink:href="#m076a1a1d1f" x="250.294574" y="104.602552" style="fill: #008000; stroke: #008000"/>
     <use xlink:href="#m076a1a1d1f" x="270.585483" y="103.397049" style="fill: #008000; stroke: #008000"/>
    </g>
   </g>
   <g id="patch_3">
    <path d="M 57.530938 173.52 
L 57.530938 7.2 
" style="fill: none; stroke: #000000; stroke-width: 0.8; stroke-linejoin: miter; stroke-linecap: square"/>
   </g>
   <g id="patch_4">
    <path d="M 280.730937 173.52 
L 280.730937 7.2 
" style="fill: none; stroke: #000000; stroke-width: 0.8; stroke-linejoin: miter; stroke-linecap: square"/>
   </g>
   <g id="patch_5">
    <path d="M 57.530938 173.52 
L 280.730937 173.52 
" style="fill: none; stroke: #000000; stroke-width: 0.8; stroke-linejoin: miter; stroke-linecap: square"/>
   </g>
   <g id="patch_6">
    <path d="M 57.530938 7.2 
L 280.730937 7.2 
" style="fill: none; stroke: #000000; stroke-width: 0.8; stroke-linejoin: miter; stroke-linecap: square"/>
   </g>
  </g>
 </g>
 <defs>
  <clipPath id="pacb4ae7eb0">
   <rect x="57.530938" y="7.2" width="223.2" height="166.32"/>
  </clipPath>
 </defs>
</svg>
